<svg width="17" height="16" viewBox="0 0 17 16" fill="none" xmlns="http://www.w3.org/2000/svg">
<g clip-path="url(#clip0_1438_16986)">
<path d="M8.72 0C10.8417 0 12.8766 0.842855 14.3769 2.34315C15.8771 3.84344 16.72 5.87827 16.72 8C16.72 10.1217 15.8771 12.1566 14.3769 13.6569C12.8766 15.1571 10.8417 16 8.72 16C6.59827 16 4.56344 15.1571 3.06315 13.6569C1.56286 12.1566 0.720001 10.1217 0.720001 8C0.720001 5.87827 1.56286 3.84344 3.06315 2.34315C4.56344 0.842855 6.59827 0 8.72 0V0ZM5.22 7.5C5.08739 7.5 4.96022 7.55268 4.86645 7.64645C4.77268 7.74021 4.72 7.86739 4.72 8C4.72 8.13261 4.77268 8.25979 4.86645 8.35355C4.96022 8.44732 5.08739 8.5 5.22 8.5H11.013L8.866 10.646C8.81951 10.6925 8.78264 10.7477 8.75748 10.8084C8.73232 10.8692 8.71937 10.9343 8.71937 11C8.71937 11.0657 8.73232 11.1308 8.75748 11.1916C8.78264 11.2523 8.81951 11.3075 8.866 11.354C8.91249 11.4005 8.96768 11.4374 9.02842 11.4625C9.08916 11.4877 9.15426 11.5006 9.22 11.5006C9.28574 11.5006 9.35085 11.4877 9.41158 11.4625C9.47232 11.4374 9.52751 11.4005 9.574 11.354L12.574 8.354C12.6206 8.30755 12.6575 8.25238 12.6827 8.19163C12.7079 8.13089 12.7209 8.06577 12.7209 8C12.7209 7.93423 12.7079 7.86911 12.6827 7.80837C12.6575 7.74762 12.6206 7.69245 12.574 7.646L9.574 4.646C9.52751 4.59951 9.47232 4.56264 9.41158 4.53748C9.35085 4.51232 9.28574 4.49937 9.22 4.49937C9.15426 4.49937 9.08916 4.51232 9.02842 4.53748C8.96768 4.56264 8.91249 4.59951 8.866 4.646C8.81951 4.69249 8.78264 4.74768 8.75748 4.80842C8.73232 4.86916 8.71937 4.93426 8.71937 5C8.71937 5.06574 8.73232 5.13084 8.75748 5.19158C8.78264 5.25232 8.81951 5.30751 8.866 5.354L11.013 7.5H5.22Z" fill="#1C5BD9"/>
</g>
<defs>
<clipPath id="clip0_1438_16986">
<rect width="16" height="16" fill="white" transform="translate(0.720001)"/>
</clipPath>
</defs>
</svg>
