<svg width="170" height="131" viewBox="0 0 170 131" fill="none" xmlns="http://www.w3.org/2000/svg">
<path d="M45.4678 27.2001C43.682 28.0481 42.1013 29.2704 40.834 30.7831C39.5666 32.2959 38.6425 34.0634 38.1249 35.9648C37.2997 38.9987 37.8287 42.4821 39.9236 44.8278C42.4911 47.6932 46.7445 48.3393 50.5817 48.0794C53.2691 47.8968 56.0059 47.3209 58.2137 45.797C59.8227 44.6478 61.0632 43.0596 61.7854 41.2239C62.5076 39.3882 62.6807 37.3836 62.2837 35.4521C60.8024 28.7943 52.6837 25.8727 46.554 27.0315C44.579 27.4107 41.8563 28.2535 40.7912 30.1146" stroke="#6753D6" stroke-width="3" stroke-linecap="round" stroke-linejoin="round"/>
<path d="M60.3157 102.908C60.806 102.929 61.2756 103.11 61.6519 103.424C62.0281 103.737 62.2899 104.166 62.3966 104.643L66.6922 123.219C66.77 123.719 66.9526 124.198 67.2283 124.623C67.4969 124.925 67.8325 125.16 68.2084 125.31C68.5843 125.46 68.9902 125.521 69.3938 125.487C70.2011 125.416 71.0024 125.289 71.792 125.108C73.9081 124.778 76.4051 125.073 77.0611 121.961C77.1424 121.543 77.1779 121.117 77.1669 120.69C77.0047 112.839 77.971 103.786 74.9591 96.3556C73.2662 92.1418 70.4166 90.2456 66.1209 89.3326C65.8035 89.2624 64.2093 88.9674 62.7775 88.7427C62.0994 88.6365 61.4801 88.2975 61.0266 87.7844C60.5732 87.2714 60.3142 86.6166 60.2946 85.9335C60.1135 80.385 59.405 74.866 58.1785 69.4505C57.6119 66.4384 56.5641 63.5362 55.0749 60.8544C52.6273 56.8021 48.0212 53.2274 43.0131 55.0393C38.3083 56.7248 36.8482 62.1958 36.9329 66.7186C37.081 74.6405 38.3436 82.4922 39.6626 90.3088C40.1141 93.0408 40.7771 96.8543 41.3203 100.029C41.4328 100.689 41.7696 101.29 42.2742 101.732C42.7788 102.175 43.4206 102.431 44.0923 102.459C49.5236 102.711 55.1031 102.69 60.3157 102.908Z" stroke="black" stroke-width="3" stroke-linecap="round" stroke-linejoin="round"/>
<path d="M140.636 28.0219C142.421 28.8699 144.002 30.0922 145.269 31.6049C146.537 33.1177 147.461 34.8852 147.978 36.7866C148.804 39.8205 148.275 43.3039 146.18 45.6496C143.619 48.515 139.359 49.1611 135.522 48.9083C132.834 48.7186 130.097 48.1428 127.89 46.6188C126.281 45.4697 125.04 43.8814 124.318 42.0457C123.596 40.21 123.423 38.2054 123.82 36.2739C125.301 29.6301 133.42 26.6945 139.542 27.8463C141.517 28.2185 144.24 29.0613 145.305 30.9294" stroke="black" stroke-width="3" stroke-linecap="round" stroke-linejoin="round"/>
<path d="M125.788 103.73C125.292 103.744 124.815 103.922 124.431 104.236C124.048 104.55 123.781 104.982 123.672 105.464L119.376 124.04C119.299 124.541 119.117 125.02 118.84 125.445C118.572 125.747 118.236 125.984 117.86 126.135C117.485 126.286 117.079 126.348 116.674 126.316C115.868 126.241 115.066 126.115 114.276 125.936C112.16 125.599 109.663 125.894 109.007 122.79C108.926 122.369 108.891 121.941 108.901 121.512C109.064 113.66 108.097 104.615 111.109 97.1773C112.802 92.9635 115.652 91.0743 119.954 90.1543C120.265 90.0911 121.859 89.7961 123.298 89.5643C123.975 89.4579 124.594 89.1186 125.046 88.6055C125.498 88.0923 125.756 87.4376 125.774 86.7551C125.952 81.2064 126.661 75.6872 127.89 70.2722C128.451 67.2595 129.496 64.3568 130.986 61.676C133.434 57.6237 138.04 54.0561 143.048 55.861C147.788 57.5676 149.248 63.0385 149.164 67.5753C149.015 75.4973 147.753 83.349 146.434 91.1656C145.982 93.8975 145.319 97.711 144.776 100.892C144.662 101.552 144.325 102.153 143.821 102.595C143.317 103.037 142.675 103.294 142.004 103.322C136.58 103.533 131 103.512 125.788 103.73Z" stroke="black" stroke-width="3" stroke-linecap="round" stroke-linejoin="round"/>
<path d="M43.2812 28.3028C40.0859 24.7281 34.3725 23.2954 29.7805 24.1662C27.8055 24.5455 25.0828 25.3882 24.0177 27.2493" stroke="#6753D6" stroke-width="3" stroke-linecap="round" stroke-linejoin="round"/>
<path d="M28.6872 24.3347C26.9016 25.1813 25.321 26.4022 24.0536 27.9138C22.7862 29.4254 21.862 31.1919 21.3444 33.0924C20.5191 36.1263 21.0481 39.6097 23.1501 41.9554C25.7106 44.8208 29.9639 45.4669 33.8082 45.2141C35.7614 45.1201 37.6852 44.7023 39.5004 43.978" stroke="#6753D6" stroke-width="3" stroke-linecap="round" stroke-linejoin="round"/>
<path d="M38.3295 57.9609C35.8819 53.9087 31.2759 50.341 26.2678 52.1459C21.5277 53.8525 20.0676 59.3234 20.1522 63.8602C20.3004 71.7822 21.563 79.6339 22.882 87.4575C23.3334 90.1895 24.0035 94.0029 24.5396 97.1773C24.6537 97.8378 24.9918 98.4394 25.4976 98.8817C26.0034 99.3239 26.6462 99.58 27.3188 99.6073C30.6331 99.7361 33.9523 99.661 37.2573 99.3826" stroke="black" stroke-width="3" stroke-linecap="round" stroke-linejoin="round"/>
<path d="M56.1329 105.619C57.1995 109.512 57.9868 113.476 58.4889 117.481C58.5715 118.461 58.7631 119.429 59.0602 120.367C59.1292 120.629 59.286 120.859 59.5046 121.02C59.7237 121.126 59.9676 121.17 60.2099 121.147H63.6451" stroke="black" stroke-width="3" stroke-linecap="round" stroke-linejoin="round"/>
<path d="M91.2601 19.1657C90.7475 17.7623 90.77 16.2204 91.3235 14.8325C91.6181 14.1531 92.1257 13.5869 92.7703 13.2185C93.4149 12.8501 94.1619 12.6994 94.8997 12.7888C95.4299 12.9117 95.9161 13.1771 96.3054 13.556C96.6946 13.9349 96.9721 14.4129 97.1075 14.9378C97.2307 15.4663 97.2245 16.0164 97.0895 16.542C96.9544 17.0675 96.6945 17.5531 96.3316 17.9577C96.9462 16.9333 97.816 16.0842 98.8568 15.4926C99.5622 15.0923 100.521 14.8465 101.149 15.3662C101.423 15.6272 101.61 15.9654 101.685 16.3354C101.866 17.2166 101.842 18.1273 101.614 18.9977C101.387 19.868 100.962 20.6751 100.373 21.3569C99.0896 22.9651 96.9453 25.1352 94.9703 24.3276C93.2069 23.6112 91.782 20.8301 91.2601 19.1657Z" stroke="#6753D6" stroke-width="3" stroke-linecap="round" stroke-linejoin="round"/>
<path d="M119.496 34.1389C119.496 24.4402 119.037 14.4745 118.283 4.77576C118.221 4.03997 117.877 3.35634 117.32 2.86803C116.764 2.37972 116.04 2.12463 115.299 2.15618C101.192 2.76718 87.1691 3.41329 73.0335 4.0243C72.333 4.05478 71.6679 4.33946 71.1638 4.82463C70.6596 5.30979 70.3512 5.9619 70.2967 6.65792C69.6231 16.3123 69.6231 26.0015 70.2967 35.6559C70.2903 35.8967 70.3675 36.1324 70.5154 36.3231C70.6799 36.4542 70.8831 36.5282 71.0938 36.5338L78.5918 37.6293C78.1637 41.0333 77.4295 44.392 76.3981 47.6652C79.9431 45.4528 83.2354 42.8624 86.2168 39.9399C86.9122 39.2693 87.8311 38.8768 88.7984 38.8373C97.9259 38.4721 107.392 37.6364 116.547 37.222C117.343 37.1841 118.093 36.8426 118.642 36.2685C119.191 35.6943 119.497 34.9317 119.496 34.1389Z" stroke="black" stroke-width="3" stroke-linecap="round" stroke-linejoin="round"/>
<path d="M119.334 77.857L119.256 73.594C101.622 73.7134 84.2699 73.6783 66.6146 73.8047L66.7486 80.3782C80.4962 80.926 95.1255 79.8796 108.612 80.1886C112.393 80.2729 115.525 79.7251 119.305 79.9006C119.305 79.3599 119.341 78.3977 119.334 77.857Z" stroke="black" stroke-width="3" stroke-linecap="round" stroke-linejoin="round"/>
</svg>
