<svg width="154" height="119" viewBox="0 0 154 119" fill="none" xmlns="http://www.w3.org/2000/svg">
<path d="M61.7125 98.3298C79.4952 118.107 112.275 114.458 130.965 98.1767C137.128 92.8052 141.715 85.8639 144.236 78.0935C149.808 61.2576 145.827 41.6082 134.141 28.2555C121.578 13.9076 101.355 8.37646 82.6645 11.2473C63.6358 14.1756 47.0543 27.2348 42.5495 46.5141" stroke="black" stroke-width="3" stroke-linecap="round" stroke-linejoin="round"/>
<path d="M20.9137 78.8973C21.3283 82.5405 22.5296 86.0505 24.4348 89.1852C26.3399 92.3198 28.9036 95.0045 31.9489 97.0538C39.508 102.094 50.2109 102.955 58.4025 98.8465C63.8054 96.0578 68.0731 91.4857 70.4792 85.9086C74.5431 76.6453 72.9712 65.2001 65.6358 57.838C58.147 50.31 47.3163 49.4934 37.3227 52.5237C35.8642 52.9698 34.462 53.582 33.1438 54.3483" stroke="black" stroke-width="3" stroke-linecap="round" stroke-linejoin="round"/>
<path d="M72.722 61.6021C74.7677 61.7374 76.7987 61.1756 78.483 60.0086C80.1672 58.8415 81.4049 57.1384 81.9936 55.1777C82.5495 53.1171 82.3514 50.8842 83.0926 48.881C83.5978 47.5968 84.4621 46.4846 85.5825 45.677C86.7029 44.8694 88.0323 44.4004 89.4121 44.3259C93.6486 44.1664 98.3067 45.8698 101.355 42.9288C102.946 41.3913 104.019 38.8649 102.843 36.9957C101.783 35.2987 99.393 34.9733 97.4505 35.4582C95.642 35.9493 94.0151 36.954 92.7675 38.3503C91.5198 39.7466 90.7049 41.4746 90.4217 43.3243" stroke="#6753D5" stroke-width="3" stroke-linecap="round" stroke-linejoin="round"/>
<path d="M79.6358 78.9483C79.2141 76.1668 81.1182 73.4427 83.5655 72.0519C86.0128 70.6611 88.9073 70.3294 91.7125 70.0934C94.5176 69.8573 97.3994 69.6659 99.968 68.5176C102.262 67.433 104.154 65.6518 105.373 63.4288C106.592 61.2058 107.075 58.6549 106.754 56.141C106.019 51.1904 109.259 46.4184 113.003 43.5093C115.184 41.7187 117.945 40.7841 120.767 40.8808C122.705 41.0265 124.518 41.8947 125.845 43.3129C127.172 44.7311 127.916 46.5957 127.93 48.5364C127.891 53.8188 122.92 55.9241 118.39 56.6641C114.722 57.2638 111.035 57.7551 107.374 58.3292" stroke="#6753D5" stroke-width="3" stroke-linecap="round" stroke-linejoin="round"/>
<path d="M114.882 72.5433C116.057 72.69 117.003 71.5736 117.438 70.4826C117.872 69.3917 118.16 68.1413 119.054 67.3693C119.949 66.5974 121.246 66.5208 122.415 66.272C123.585 66.0232 124.869 65.3789 125.054 64.205C125.261 62.2671 126.217 60.4862 127.719 59.2416C128.412 58.5874 129.321 58.2104 130.275 58.1826C130.76 58.1848 131.226 58.3702 131.579 58.7017C131.932 59.0332 132.147 59.486 132.179 59.9689C132.121 60.3199 131.991 60.655 131.796 60.9527C131.602 61.2504 131.347 61.5042 131.048 61.6978C129.366 63.0414 127.296 63.8106 125.144 63.8924" stroke="#6753D5" stroke-width="3" stroke-linecap="round" stroke-linejoin="round"/>
<path d="M89.4888 103.912C90.4984 103.223 93.4824 103.274 93.6102 100.41C93.5774 99.3182 93.9533 98.2536 94.6645 97.424C95.6805 96.2182 97.2844 95.676 98.8435 95.3889C100.403 95.1018 102.006 94.9934 103.476 94.4128C104.946 93.8323 106.3 92.6265 106.498 91.0635C106.555 90.7302 106.532 90.3884 106.434 90.0652C106.335 89.7419 106.163 89.4459 105.93 89.2006C105.016 88.3394 103.112 88.4669 102.096 89.2006C100.121 90.5786 99.1566 93.1305 98.8562 95.5165" stroke="#6753D5" stroke-width="3" stroke-linecap="round" stroke-linejoin="round"/>
<path d="M47.0799 79.2163C46.7562 79.245 46.4425 79.3429 46.1602 79.5035C45.8778 79.6641 45.6334 79.8835 45.4437 80.1468C45.2539 80.4102 45.1232 80.7112 45.0604 81.0296C44.9976 81.3479 45.0043 81.676 45.0799 81.9915C45.1946 82.2922 45.374 82.5642 45.6054 82.7882C45.8368 83.0123 46.1146 83.1829 46.4192 83.2882C46.7238 83.3934 47.0478 83.4306 47.3684 83.3973C47.689 83.3639 47.9984 83.2608 48.2748 83.0951C48.5262 82.8911 48.7281 82.6329 48.8653 82.3399C49.0026 82.047 49.0716 81.7267 49.0673 81.4033C49.063 81.0799 48.9855 80.7616 48.8405 80.4723C48.6955 80.1831 48.4868 79.9304 48.23 79.7331C47.9492 79.5726 47.6348 79.4796 47.3117 79.4615C46.9887 79.4434 46.6658 79.5007 46.3688 79.6289C46.0718 79.757 45.8087 79.9525 45.6005 80.1998C45.3923 80.4471 45.2447 80.7395 45.1693 81.0537" stroke="#6753D5" stroke-width="3" stroke-linecap="round" stroke-linejoin="round"/>
<path d="M47.2844 79.1909C47.6805 72.9963 47.393 67.9627 47.7828 61.7744" stroke="#6753D5" stroke-width="3" stroke-linecap="round" stroke-linejoin="round"/>
<path d="M48.8882 81.5896C51.5179 81.8639 54.169 81.8639 56.7987 81.5896" stroke="#6753D5" stroke-width="3" stroke-linecap="round" stroke-linejoin="round"/>
<path d="M23.5463 51.5605C20.4856 51.1713 15.8211 53.3532 13.476 56.6132C12.2912 58.2458 11.449 60.1006 10.9999 62.0662C10.5508 64.0319 10.5041 66.0678 10.8626 68.0519C11.4626 70.8575 12.8894 73.4198 14.9595 75.4093C17.0296 77.3988 19.6484 78.7247 22.4792 79.2164C25.3284 79.6062 28.2293 79.1359 30.8085 77.8659C33.3878 76.596 35.5274 74.5845 36.9521 72.0903C38.2837 69.5464 38.823 66.663 38.5008 63.8107C38.1786 60.9585 37.0095 58.2675 35.1438 56.0837C33.1963 53.9699 30.6593 52.487 27.8599 51.8264C25.0604 51.1657 22.1269 51.3575 19.4377 52.3771" stroke="black" stroke-width="3" stroke-linecap="round" stroke-linejoin="round"/>
<path d="M23.5463 57.2449L24.0831 68.1605" stroke="#6753D5" stroke-width="3" stroke-linecap="round" stroke-linejoin="round"/>
<path d="M24.9585 71.9562C24.8626 71.8988 24.8626 72.154 24.9585 72.0966" stroke="#6753D5" stroke-width="3" stroke-linecap="round" stroke-linejoin="round"/>
<path d="M57.3482 23.1135L130.607 97.1815" stroke="black" stroke-width="3" stroke-linecap="round" stroke-linejoin="round"/>
</svg>
