<svg width="40" height="40" viewBox="0 0 40 40" fill="none" xmlns="http://www.w3.org/2000/svg">
<circle cx="20" cy="20" r="20" fill="#6F6FFF"/>
<path d="M27.4333 14.4H24.6V12.7C24.6 11.7615 23.8385 11 22.9 11H17.2333C16.2948 11 15.5333 11.7615 15.5333 12.7V14.4H12.7C11.7615 14.4 11 15.1615 11 16.1V26.3C11 27.2385 11.7615 28 12.7 28H27.4333C28.3719 28 29.1333 27.2385 29.1333 26.3V16.1C29.1333 15.1615 28.3719 14.4 27.4333 14.4ZM17.8 13.2667H22.3333V14.4H17.8V13.2667ZM23.4667 22.05C23.4667 22.2058 23.3392 22.3333 23.1833 22.3333H21.2V24.3167C21.2 24.4725 21.0725 24.6 20.9167 24.6H19.2167C19.0608 24.6 18.9333 24.4725 18.9333 24.3167V22.3333H16.95C16.7942 22.3333 16.6667 22.2058 16.6667 22.05V20.35C16.6667 20.1942 16.7942 20.0667 16.95 20.0667H18.9333V18.0833C18.9333 17.9275 19.0608 17.8 19.2167 17.8H20.9167C21.0725 17.8 21.2 17.9275 21.2 18.0833V20.0667H23.1833C23.3392 20.0667 23.4667 20.1942 23.4667 20.35V22.05Z" fill="white"/>
</svg>
