<svg width="56" height="56" viewBox="0 0 56 56" fill="none" xmlns="http://www.w3.org/2000/svg">
<g filter="url(#filter0_d_1559_91900)">
<path d="M5.02442 23.7912C5.0233 27.8375 6.0853 31.7884 8.10467 35.2708L4.8313 47.1691L17.0623 43.9764C20.4452 45.8099 24.2356 46.7706 28.0873 46.7708H28.0974C40.8127 46.7708 51.1633 36.4701 51.1687 23.8093C51.1712 17.6742 48.7734 11.9052 44.417 7.56489C40.0614 3.22496 34.2686 0.833611 28.0965 0.830811C15.3797 0.830811 5.02986 11.1309 5.02461 23.7912" fill="url(#paint0_linear_1559_91900)"/>
</g>
<path d="M4.20063 23.7839C4.19931 27.9758 5.29937 32.0681 7.39075 35.6752L4 48L16.6696 44.6929C20.1604 46.5877 24.0908 47.5867 28.0902 47.5882H28.1005C41.272 47.5882 51.9944 36.917 52 23.803C52.0023 17.4475 49.5182 11.471 45.0062 6.97525C40.4937 2.48001 34.4937 0.00261329 28.1005 0C14.9267 0 4.20606 10.6697 4.20081 23.7839H4.20063ZM11.7456 35.0539L11.2726 34.3064C9.28394 31.1585 8.23431 27.5208 8.23581 23.7854C8.24012 12.8852 17.1509 4.017 28.108 4.017C33.4143 4.01924 38.401 6.07852 42.1517 9.81478C45.9023 13.5514 47.9661 18.5185 47.9648 23.8015C47.9599 34.7017 39.049 43.571 28.1005 43.571H28.0926C24.5277 43.5692 21.0314 42.6161 17.9823 40.8149L17.2566 40.3866L9.73825 42.3489L11.7456 35.0538V35.0539Z" fill="url(#paint1_linear_1559_91900)"/>
<path d="M22.127 13.8406C21.6797 12.8507 21.2089 12.8308 20.7834 12.8134C20.435 12.7985 20.0368 12.7996 19.6389 12.7996C19.2407 12.7996 18.5936 12.9487 18.0467 13.5432C17.4992 14.1383 15.9564 15.5764 15.9564 18.5012C15.9564 21.4262 18.0964 24.2529 18.3947 24.6499C18.6934 25.0462 22.5259 31.2405 28.5956 33.6234C33.6401 35.6037 34.6667 35.2099 35.7615 35.1106C36.8565 35.0116 39.2947 33.6729 39.7922 32.2847C40.29 30.8966 40.29 29.7068 40.1407 29.4582C39.9915 29.2105 39.5932 29.0617 38.996 28.7645C38.3987 28.4672 35.4628 27.029 34.9155 26.8305C34.368 26.6323 33.9699 26.5334 33.5717 27.1286C33.1734 27.723 32.0299 29.0617 31.6813 29.4582C31.3331 29.8556 30.9845 29.9051 30.3875 29.6077C29.79 29.3094 27.8668 28.6824 25.5851 26.6573C23.8099 25.0815 22.6114 23.1355 22.263 22.5402C21.9146 21.9459 22.2257 21.6237 22.5251 21.3275C22.7934 21.0611 23.1225 20.6333 23.4214 20.2863C23.7191 19.9391 23.8185 19.6914 24.0176 19.2949C24.2169 18.8981 24.1172 18.5509 23.9681 18.2535C23.8185 17.9562 22.658 15.0162 22.127 13.8408" fill="white"/>
<defs>
<filter id="filter0_d_1559_91900" x="0.831299" y="0.830811" width="54.3375" height="54.3384" filterUnits="userSpaceOnUse" color-interpolation-filters="sRGB">
<feFlood flood-opacity="0" result="BackgroundImageFix"/>
<feColorMatrix in="SourceAlpha" type="matrix" values="0 0 0 0 0 0 0 0 0 0 0 0 0 0 0 0 0 0 127 0" result="hardAlpha"/>
<feOffset dy="4"/>
<feGaussianBlur stdDeviation="2"/>
<feComposite in2="hardAlpha" operator="out"/>
<feColorMatrix type="matrix" values="0 0 0 0 0 0 0 0 0 0 0 0 0 0 0 0 0 0 0.25 0"/>
<feBlend mode="normal" in2="BackgroundImageFix" result="effect1_dropShadow_1559_91900"/>
<feBlend mode="normal" in="SourceGraphic" in2="effect1_dropShadow_1559_91900" result="shape"/>
</filter>
<linearGradient id="paint0_linear_1559_91900" x1="28" y1="47.1691" x2="28" y2="0.830811" gradientUnits="userSpaceOnUse">
<stop stop-color="#1FAF38"/>
<stop offset="1" stop-color="#60D669"/>
</linearGradient>
<linearGradient id="paint1_linear_1559_91900" x1="28" y1="48" x2="28" y2="0" gradientUnits="userSpaceOnUse">
<stop stop-color="#F9F9F9"/>
<stop offset="1" stop-color="white"/>
</linearGradient>
</defs>
</svg>
